<svg height="512" width="512" xmlns="http://www.w3.org/2000/svg"><path d="m219.0230103 70.4013443h152.1773376c77.7615356 0 140.7996521 63.0381241 140.7996521 140.7995987v152.1770782c0 77.7615356-63.0381165 140.7996521-140.7996521 140.7996521h-152.1773376c-77.7614746 0-140.7995605-63.0381165-140.7995605-140.7996521v-152.1770782c-.0000001-77.7614746 63.0380858-140.7995987 140.7995605-140.7995987zm-119.4658661-12.8004494c0-38.1775055-41.6132317-62.1679955-74.7240448-43.0792427s-33.1107979 67.0697327.0000095 86.1584854 74.7240353-4.901741 74.7240353-43.0792427zm142.2207794 139.3774681c0-40.3776093-43.9901428-65.7506256-78.992218-45.5618134s-35.0020523 70.9348297.0000153 91.1236267 78.9922027-5.184204 78.9922027-45.5618133zm206.2221985 166.3997498c0-69.8232727-76.0916443-113.6997528-136.6362-78.7881165s-60.5445557 122.6646118 0 157.5762634 136.6362-8.9648437 136.6362-78.7881469z" fill="#181816"/></svg>