<?xml version="1.0" encoding="UTF-8" standalone="no"?>
<svg
   viewBox="0 0 24 24"
   id="nuget"
   version="1.1"
   sodipodi:docname="nuget.svg"
   inkscape:export-filename="../vscode-nuget-gallery/docs/images/nuget2.png"
   inkscape:export-xdpi="512"
   inkscape:export-ydpi="512"
   inkscape:version="1.3.2 (1:1.3.2+202311252150+091e20ef0f)"
   xmlns:inkscape="http://www.inkscape.org/namespaces/inkscape"
   xmlns:sodipodi="http://sodipodi.sourceforge.net/DTD/sodipodi-0.dtd"
   xmlns:xlink="http://www.w3.org/1999/xlink"
   xmlns="http://www.w3.org/2000/svg"
   xmlns:svg="http://www.w3.org/2000/svg">
  <defs
     id="defs1">
    <linearGradient
       id="swatch6">
      <stop
         style="stop-color:#3affff;stop-opacity:1;"
         offset="0"
         id="stop8" />
    </linearGradient>
    <linearGradient
       id="swatch6-1">
      <stop
         style="stop-color:#9d3cfa;stop-opacity:1;"
         offset="0"
         id="stop7" />
      <stop
         style="stop-color:#db3cfa;stop-opacity:1;"
         offset="0.47511753"
         id="stop10" />
      <stop
         style="stop-color:#3cfffa;stop-opacity:1;"
         offset="1"
         id="stop9" />
    </linearGradient>
    <linearGradient
       inkscape:collect="always"
       xlink:href="#swatch6-1"
       id="linearGradient8"
       gradientUnits="userSpaceOnUse"
       x1="-0.050000001"
       y1="0.55025083"
       x2="23.979628"
       y2="23.473207" />
  </defs>
  <sodipodi:namedview
     id="namedview1"
     pagecolor="#ffffff"
     bordercolor="#000000"
     borderopacity="0.25"
     inkscape:showpageshadow="2"
     inkscape:pageopacity="0.0"
     inkscape:pagecheckerboard="0"
     inkscape:deskcolor="#d1d1d1"
     inkscape:zoom="17.250459"
     inkscape:cx="-5.6230387"
     inkscape:cy="10.289581"
     inkscape:window-width="3440"
     inkscape:window-height="1371"
     inkscape:window-x="0"
     inkscape:window-y="0"
     inkscape:window-maximized="1"
     inkscape:current-layer="nuget" />
  <path
     d="M2.415 5.271C1.083 5.271 0 4.201 0 2.886S1.083.5 2.415.5 4.83 1.57 4.83 2.886 3.746 5.271 2.415 5.271zm0-3.771C1.635 1.5 1 2.122 1 2.886s.635 1.385 1.415 1.385S3.83 3.65 3.83 2.886 3.194 1.5 2.415 1.5zm15.188 22h-6.389c-3.527 0-6.397-2.829-6.397-6.307v-6.291c.001-3.477 2.871-6.307 6.397-6.308h6.389C21.13 4.596 24 7.426 24 10.902v6.291c0 3.478-2.87 6.307-6.397 6.307zM11.214 5.595c-2.975.001-5.396 2.382-5.397 5.308v6.291c0 2.926 2.421 5.307 5.397 5.307h6.389c2.976 0 5.397-2.381 5.397-5.307v-6.291c0-2.926-2.421-5.307-5.397-5.308h-6.389zm6.22 15.995c-2.387 0-4.329-1.915-4.329-4.27s1.942-4.27 4.329-4.27 4.328 1.915 4.328 4.27-1.941 4.27-4.328 4.27zm0-7.539c-1.835 0-3.329 1.467-3.329 3.27s1.493 3.27 3.329 3.27c1.835 0 3.328-1.467 3.328-3.27s-1.493-3.27-3.328-3.27zM9.797 12.95c-1.595 0-2.893-1.281-2.893-2.856 0-1.574 1.298-2.855 2.893-2.855 1.595 0 2.893 1.281 2.893 2.855 0 1.575-1.297 2.856-2.893 2.856zm0-4.712c-1.043 0-1.893.832-1.893 1.855s.849 1.856 1.893 1.856 1.893-.833 1.893-1.856-.849-1.855-1.893-1.855z"
     id="path1"
     style="fill:url(#linearGradient8);fill-opacity:1;stroke:#000000;stroke-opacity:1;opacity:1;stroke-width:0;stroke-dasharray:none;fill-rule:nonzero" />
</svg>
